<?xml version="1.0" standalone="no"?>
<!DOCTYPE svg PUBLIC "-//W3C//DTD SVG 20010904//EN"
 "http://www.w3.org/TR/2001/REC-SVG-20010904/DTD/svg10.dtd">
<svg version="1.0" xmlns="http://www.w3.org/2000/svg"
 width="652.000000pt" height="1280.000000pt" viewBox="0 0 652.000000 1280.000000"
 preserveAspectRatio="xMidYMid meet">
<metadata>
Created by potrace 1.15, written by Peter Selinger 2001-2017
</metadata>
<g transform="translate(0.000000,1280.000000) scale(0.100000,-0.100000)"
fill="#4caf50" stroke="none">
<path d="M2875 12784 c-177 -92 -277 -458 -277 -1024 -1 -250 11 -426 43 -660
18 -130 61 -364 76 -415 6 -21 5 -20 -154 116 -460 395 -1138 760 -1598 860
-116 26 -296 31 -362 11 -57 -17 -108 -67 -123 -120 -34 -128 82 -334 325
-578 224 -225 480 -419 819 -621 77 -46 135 -83 130 -83 -39 0 -362 -32 -454
-45 -647 -90 -1170 -298 -1274 -507 -44 -88 -30 -146 55 -222 220 -198 1013
-260 1739 -136 58 10 106 17 108 15 1 -1 -35 -26 -80 -56 -262 -171 -487 -355
-718 -588 -174 -174 -278 -300 -358 -435 -68 -113 -86 -169 -86 -268 -1 -86
-1 -87 34 -123 61 -63 174 -81 328 -49 544 110 1376 658 1857 1224 l30 35 0
-315 c0 -345 13 -494 65 -805 72 -421 193 -783 328 -982 61 -89 141 -158 201
-173 43 -10 55 -9 93 8 163 72 261 390 283 917 13 311 -37 825 -109 1130 l-14
60 77 -80 c42 -44 168 -190 281 -324 112 -135 249 -292 304 -350 247 -260 337
-391 401 -588 53 -162 54 -169 57 -1413 3 -1073 2 -1164 -15 -1280 -62 -424
-128 -561 -453 -933 -80 -92 -169 -195 -196 -230 -205 -252 -345 -585 -419
-990 l-23 -127 -688 0 c-378 0 -688 -2 -688 -4 0 -7 911 -2629 915 -2634 2 -3
1120 34 1248 42 43 2 80 6 83 8 2 2 200 580 440 1284 240 703 439 1285 441
1292 4 9 -159 12 -796 12 l-801 0 6 33 c48 263 115 488 199 664 89 186 149
271 389 543 339 387 428 565 486 973 34 239 38 466 30 1522 -8 1097 -8 1091
-66 1277 -36 114 -121 276 -199 381 -37 48 -134 160 -218 250 -83 89 -227 254
-321 367 -94 113 -190 226 -214 253 -25 26 -42 47 -40 47 3 0 54 -28 114 -62
398 -226 925 -422 1329 -494 142 -25 366 -30 458 -10 526 117 -65 756 -1102
1190 l-153 64 73 5 c311 23 390 31 533 52 653 97 1143 298 1246 511 28 57 25
102 -9 156 -109 172 -554 272 -1131 254 -190 -5 -417 -23 -535 -42 -39 -6 -38
-5 55 66 163 124 310 253 447 392 215 217 343 385 412 543 31 70 36 90 36 162
0 67 -4 86 -21 110 -106 141 -427 92 -881 -136 -420 -210 -919 -583 -1221
-912 l-79 -86 -6 241 c-14 547 -119 1087 -287 1470 -50 113 -144 260 -196 306
-74 65 -151 85 -209 54z"/>
</g>
</svg>
