<svg fill="none" xmlns="http://www.w3.org/2000/svg">
<symbol id="facebook" viewBox="0 0 24 24" preserveAspectRatio="xminYMin meet">
<path d="M15.1199 5.32003H16.9999V2.14003C16.0896 2.04538 15.175 1.99865 14.2599 2.00003C11.5399 2.00003 9.67986 3.66003 9.67986 6.70003V9.32003H6.60986V12.88H9.67986V22H13.3599V12.88H16.4199L16.8799 9.32003H13.3599V7.05003C13.3599 6.00003 13.6399 5.32003 15.1199 5.32003Z" fill="var(--icon-color)"/>
</symbol>
<symbol id="instagram" viewBox="0 0 24 24" preserveAspectRatio="xminYMin meet">
<path d="M17.34 5.46C17.1027 5.46 16.8707 5.53038 16.6733 5.66224C16.476 5.79409 16.3222 5.98151 16.2313 6.20078C16.1405 6.42005 16.1168 6.66133 16.1631 6.89411C16.2094 7.12689 16.3236 7.34071 16.4915 7.50853C16.6593 7.67635 16.8731 7.79064 17.1059 7.83694C17.3387 7.88324 17.5799 7.85948 17.7992 7.76866C18.0185 7.67783 18.2059 7.52402 18.3378 7.32668C18.4696 7.12935 18.54 6.89734 18.54 6.66C18.54 6.34174 18.4136 6.03652 18.1885 5.81147C17.9635 5.58643 17.6583 5.46 17.34 5.46V5.46ZM21.94 7.88C21.9206 7.0503 21.7652 6.2294 21.48 5.45C21.2257 4.78313 20.83 4.17928 20.32 3.68C19.8248 3.16743 19.2196 2.77418 18.55 2.53C17.7727 2.23616 16.9508 2.07721 16.12 2.06C15.06 2 14.72 2 12 2C9.28 2 8.94 2 7.88 2.06C7.04915 2.07721 6.22734 2.23616 5.45 2.53C4.78168 2.77665 4.17693 3.16956 3.68 3.68C3.16743 4.17518 2.77418 4.78044 2.53 5.45C2.23616 6.22734 2.07721 7.04915 2.06 7.88C2 8.94 2 9.28 2 12C2 14.72 2 15.06 2.06 16.12C2.07721 16.9508 2.23616 17.7727 2.53 18.55C2.77418 19.2196 3.16743 19.8248 3.68 20.32C4.17693 20.8304 4.78168 21.2234 5.45 21.47C6.22734 21.7638 7.04915 21.9228 7.88 21.94C8.94 22 9.28 22 12 22C14.72 22 15.06 22 16.12 21.94C16.9508 21.9228 17.7727 21.7638 18.55 21.47C19.2196 21.2258 19.8248 20.8326 20.32 20.32C20.8322 19.8226 21.2283 19.2182 21.48 18.55C21.7652 17.7706 21.9206 16.9497 21.94 16.12C21.94 15.06 22 14.72 22 12C22 9.28 22 8.94 21.94 7.88V7.88ZM20.14 16C20.1327 16.6348 20.0178 17.2637 19.8 17.86C19.6403 18.2952 19.3839 18.6884 19.05 19.01C18.7256 19.3405 18.3332 19.5964 17.9 19.76C17.3037 19.9778 16.6748 20.0927 16.04 20.1C15.04 20.15 14.67 20.16 12.04 20.16C9.41 20.16 9.04 20.16 8.04 20.1C7.38089 20.1123 6.72459 20.0109 6.1 19.8C5.68578 19.6281 5.31136 19.3728 5 19.05C4.66809 18.7287 4.41484 18.3352 4.26 17.9C4.01586 17.2952 3.88044 16.6519 3.86 16C3.86 15 3.8 14.63 3.8 12C3.8 9.37 3.8 9 3.86 8C3.86448 7.35106 3.98295 6.70795 4.21 6.1C4.38605 5.67791 4.65626 5.30166 5 5C5.30381 4.65617 5.67929 4.3831 6.1 4.2C6.70955 3.98004 7.352 3.86508 8 3.86C9 3.86 9.37 3.8 12 3.8C14.63 3.8 15 3.8 16 3.86C16.6348 3.86728 17.2637 3.98225 17.86 4.2C18.3144 4.36865 18.7223 4.64285 19.05 5C19.3777 5.30718 19.6338 5.68273 19.8 6.1C20.0223 6.70893 20.1373 7.35178 20.14 8C20.19 9 20.2 9.37 20.2 12C20.2 14.63 20.19 15 20.14 16ZM12 6.87C10.9858 6.87198 9.99496 7.17453 9.15265 7.73942C8.31035 8.30431 7.65438 9.1062 7.26763 10.0438C6.88089 10.9813 6.78072 12.0125 6.97979 13.0069C7.17886 14.0014 7.66824 14.9145 8.38608 15.631C9.10392 16.3474 10.018 16.835 11.0129 17.0321C12.0077 17.2293 13.0387 17.1271 13.9755 16.7385C14.9123 16.35 15.7129 15.6924 16.2761 14.849C16.8394 14.0056 17.14 13.0142 17.14 12C17.1413 11.3251 17.0092 10.6566 16.7512 10.033C16.4933 9.40931 16.1146 8.84281 15.6369 8.36605C15.1592 7.88929 14.5919 7.51168 13.9678 7.25493C13.3436 6.99818 12.6749 6.86736 12 6.87V6.87ZM12 15.33C11.3414 15.33 10.6976 15.1347 10.15 14.7688C9.60234 14.4029 9.17552 13.8828 8.92348 13.2743C8.67144 12.6659 8.6055 11.9963 8.73398 11.3503C8.86247 10.7044 9.17963 10.111 9.64533 9.64533C10.111 9.17963 10.7044 8.86247 11.3503 8.73398C11.9963 8.6055 12.6659 8.67144 13.2743 8.92348C13.8828 9.17552 14.4029 9.60234 14.7688 10.15C15.1347 10.6976 15.33 11.3414 15.33 12C15.33 12.4373 15.2439 12.8703 15.0765 13.2743C14.9092 13.6784 14.6639 14.0454 14.3547 14.3547C14.0454 14.6639 13.6784 14.9092 13.2743 15.0765C12.8703 15.2439 12.4373 15.33 12 15.33V15.33Z" fill="var(--icon-color)"/>
</symbol>
<symbol id="menu" viewBox="0 0 24 24" preserveAspectRatio="xminYMin meet">
<path fill-rule="evenodd" clip-rule="evenodd" d="M3 7C3 6.44772 3.36631 6 3.81818 6H20.1818C20.6337 6 21 6.44772 21 7C21 7.55229 20.6337 8 20.1818 8L3.81818 8C3.36631 8 3 7.55228 3 7ZM5.45455 17C5.45455 16.4477 5.82086 16 6.27273 16L19.3636 16C19.8155 16 20.1818 16.4477 20.1818 17C20.1818 17.5523 19.8155 18 19.3636 18L6.27273 18C5.82086 18 5.45455 17.5523 5.45455 17ZM11.1818 11C10.7299 11 10.3636 11.4477 10.3636 12C10.3636 12.5523 10.7299 13 11.1818 13L19.3636 13C19.8155 13 20.1818 12.5523 20.1818 12C20.1818 11.4477 19.8155 11 19.3636 11L11.1818 11Z" fill="var(--icon-color)"/>
</symbol>
<symbol id="search" viewBox="0 0 24 24" preserveAspectRatio="xminYMin meet">
<path d="M21.7099 20.2904L17.9999 16.6104C19.44 14.8148 20.1374 12.5357 19.9487 10.2417C19.76 7.94769 18.6996 5.81318 16.9854 4.27704C15.2713 2.7409 13.0337 1.9199 10.7328 1.98286C8.43194 2.04582 6.24263 2.98795 4.61505 4.61553C2.98747 6.24311 2.04534 8.43243 1.98237 10.7333C1.91941 13.0342 2.74041 15.2718 4.27655 16.9859C5.81269 18.7001 7.94721 19.7605 10.2412 19.9492C12.5352 20.1379 14.8143 19.4405 16.6099 18.0004L20.2899 21.6804C20.3829 21.7741 20.4935 21.8485 20.6153 21.8993C20.7372 21.9501 20.8679 21.9762 20.9999 21.9762C21.1319 21.9762 21.2626 21.9501 21.3845 21.8993C21.5063 21.8485 21.6169 21.7741 21.7099 21.6804C21.8901 21.4939 21.9909 21.2447 21.9909 20.9854C21.9909 20.7261 21.8901 20.4769 21.7099 20.2904V20.2904ZM10.9999 18.0004C9.61544 18.0004 8.26206 17.5899 7.11091 16.8207C5.95977 16.0515 5.06256 14.9583 4.53275 13.6792C4.00293 12.4001 3.86431 10.9926 4.13441 9.63476C4.4045 8.27689 5.07119 7.02961 6.05016 6.05065C7.02912 5.07168 8.27641 4.40499 9.63427 4.1349C10.9921 3.8648 12.3996 4.00342 13.6787 4.53324C14.9578 5.06305 16.051 5.96026 16.8202 7.1114C17.5894 8.26255 17.9999 9.61592 17.9999 11.0004C17.9999 12.8569 17.2624 14.6374 15.9497 15.9501C14.6369 17.2629 12.8564 18.0004 10.9999 18.0004V18.0004Z" fill="var(--icon-color)"/>
</symbol>
<symbol id="shopping-bag" viewBox="0 0 24 24" preserveAspectRatio="xminYMin meet">
<path d="M19 7H16V6C16 4.93913 15.5786 3.92172 14.8284 3.17157C14.0783 2.42143 13.0609 2 12 2C10.9391 2 9.92172 2.42143 9.17157 3.17157C8.42143 3.92172 8 4.93913 8 6V7H5C4.73478 7 4.48043 7.10536 4.29289 7.29289C4.10536 7.48043 4 7.73478 4 8V19C4 19.7956 4.31607 20.5587 4.87868 21.1213C5.44129 21.6839 6.20435 22 7 22H17C17.7956 22 18.5587 21.6839 19.1213 21.1213C19.6839 20.5587 20 19.7956 20 19V8C20 7.73478 19.8946 7.48043 19.7071 7.29289C19.5196 7.10536 19.2652 7 19 7ZM10 6C10 5.46957 10.2107 4.96086 10.5858 4.58579C10.9609 4.21071 11.4696 4 12 4C12.5304 4 13.0391 4.21071 13.4142 4.58579C13.7893 4.96086 14 5.46957 14 6V7H10V6ZM18 19C18 19.2652 17.8946 19.5196 17.7071 19.7071C17.5196 19.8946 17.2652 20 17 20H7C6.73478 20 6.48043 19.8946 6.29289 19.7071C6.10536 19.5196 6 19.2652 6 19V9H8V10C8 10.2652 8.10536 10.5196 8.29289 10.7071C8.48043 10.8946 8.73478 11 9 11C9.26522 11 9.51957 10.8946 9.70711 10.7071C9.89464 10.5196 10 10.2652 10 10V9H14V10C14 10.2652 14.1054 10.5196 14.2929 10.7071C14.4804 10.8946 14.7348 11 15 11C15.2652 11 15.5196 10.8946 15.7071 10.7071C15.8946 10.5196 16 10.2652 16 10V9H18V19Z" fill="var(--icon-color)"/>
</symbol>
<symbol id="shopping-basket" viewBox="0 0 24 24" preserveAspectRatio="xminYMin meet">
<path d="M13.9998 18.0001C14.265 18.0001 14.5194 17.8948 14.7069 17.7073C14.8944 17.5197 14.9998 17.2654 14.9998 17.0001V15.0001C14.9998 14.7349 14.8944 14.4806 14.7069 14.293C14.5194 14.1055 14.265 14.0001 13.9998 14.0001C13.7346 14.0001 13.4802 14.1055 13.2927 14.293C13.1052 14.4806 12.9998 14.7349 12.9998 15.0001V17.0001C12.9998 17.2654 13.1052 17.5197 13.2927 17.7073C13.4802 17.8948 13.7346 18.0001 13.9998 18.0001ZM9.99979 18.0001C10.265 18.0001 10.5194 17.8948 10.7069 17.7073C10.8944 17.5197 10.9998 17.2654 10.9998 17.0001V15.0001C10.9998 14.7349 10.8944 14.4806 10.7069 14.293C10.5194 14.1055 10.265 14.0001 9.99979 14.0001C9.73458 14.0001 9.48022 14.1055 9.29269 14.293C9.10515 14.4806 8.99979 14.7349 8.99979 15.0001V17.0001C8.99979 17.2654 9.10515 17.5197 9.29269 17.7073C9.48022 17.8948 9.73458 18.0001 9.99979 18.0001ZM18.9998 6.00015H17.6198L15.8898 2.55015C15.8369 2.4232 15.7585 2.30852 15.6593 2.21328C15.5601 2.11803 15.4423 2.04427 15.3133 1.99659C15.1843 1.94892 15.0469 1.92836 14.9096 1.9362C14.7723 1.94404 14.6381 1.98011 14.5154 2.04216C14.3927 2.10421 14.2841 2.1909 14.1964 2.29682C14.1087 2.40274 14.0438 2.5256 14.0057 2.65774C13.9676 2.78988 13.9572 2.92845 13.9752 3.0648C13.9931 3.20114 14.0389 3.33232 14.1098 3.45015L15.3798 6.00015H8.61979L9.88979 3.45015C9.98686 3.21706 9.99215 2.95587 9.90461 2.71904C9.81708 2.4822 9.64319 2.28725 9.41785 2.17331C9.19252 2.05938 8.93244 2.03491 8.68981 2.10481C8.44718 2.17471 8.23997 2.3338 8.10979 2.55015L6.37979 6.00015H4.99979C4.29298 6.0109 3.61267 6.2709 3.07884 6.73428C2.54502 7.19767 2.19197 7.83468 2.08196 8.53296C1.97196 9.23124 2.11207 9.94594 2.47758 10.551C2.84309 11.1561 3.41052 11.6126 4.07979 11.8401L4.81979 19.3001C4.89441 20.0427 5.24314 20.7308 5.79786 21.2301C6.35259 21.7293 7.07349 22.0039 7.81979 22.0001H16.1998C16.9461 22.0039 17.667 21.7293 18.2217 21.2301C18.7764 20.7308 19.1252 20.0427 19.1998 19.3001L19.9398 11.8401C20.6105 11.6119 21.1788 11.1537 21.5441 10.5466C21.9093 9.93955 22.048 9.22278 21.9354 8.52329C21.8228 7.8238 21.4663 7.18674 20.929 6.72492C20.3917 6.26311 19.7083 6.00636 18.9998 6.00015V6.00015ZM17.1898 19.1001C17.1649 19.3477 17.0487 19.577 16.8638 19.7435C16.6789 19.9099 16.4386 20.0014 16.1898 20.0001H7.80979C7.56103 20.0014 7.32073 19.9099 7.13582 19.7435C6.95091 19.577 6.83467 19.3477 6.80979 19.1001L6.09979 12.0001H17.8998L17.1898 19.1001ZM18.9998 10.0001H4.99979C4.73458 10.0001 4.48022 9.89479 4.29269 9.70726C4.10515 9.51972 3.99979 9.26537 3.99979 9.00015C3.99979 8.73493 4.10515 8.48058 4.29269 8.29304C4.48022 8.10551 4.73458 8.00015 4.99979 8.00015H18.9998C19.265 8.00015 19.5194 8.10551 19.7069 8.29304C19.8944 8.48058 19.9998 8.73493 19.9998 9.00015C19.9998 9.26537 19.8944 9.51972 19.7069 9.70726C19.5194 9.89479 19.265 10.0001 18.9998 10.0001Z" fill="var(--icon-color)"/>
</symbol>
<symbol id="shopping-cart" viewBox="0 0 24 24" preserveAspectRatio="xminYMin meet">
<path d="M8.5 19C8.20333 19 7.91332 19.088 7.66664 19.2528C7.41997 19.4176 7.22771 19.6519 7.11418 19.926C7.00065 20.2001 6.97094 20.5017 7.02882 20.7926C7.0867 21.0836 7.22956 21.3509 7.43934 21.5607C7.64912 21.7704 7.91639 21.9133 8.20736 21.9712C8.49834 22.0291 8.79994 21.9993 9.07403 21.8858C9.34811 21.7723 9.58238 21.58 9.7472 21.3334C9.91203 21.0867 10 20.7967 10 20.5C10 20.1022 9.84196 19.7206 9.56066 19.4393C9.27936 19.158 8.89782 19 8.5 19ZM19 16H7C6.73478 16 6.48043 15.8946 6.29289 15.7071C6.10536 15.5196 6 15.2652 6 15C6 14.7348 6.10536 14.4804 6.29289 14.2929C6.48043 14.1054 6.73478 14 7 14H15.4912C16.1426 13.9979 16.7758 13.7847 17.2959 13.3925C17.816 13.0002 18.195 12.45 18.376 11.8242L19.9614 6.2749C20.004 6.12607 20.0114 5.9694 19.9831 5.81722C19.9548 5.66505 19.8915 5.52152 19.7983 5.39793C19.7051 5.27435 19.5845 5.17408 19.446 5.10503C19.3075 5.03598 19.1548 5.00003 19 5H6.73907C6.53206 4.41736 6.15044 3.91271 5.64622 3.55481C5.14201 3.19692 4.53971 3.00318 3.92139 3H3C2.73478 3 2.48043 3.10536 2.29289 3.29289C2.10536 3.48043 2 3.73478 2 4C2 4.26522 2.10536 4.51957 2.29289 4.70711C2.48043 4.89464 2.73478 5 3 5H3.92139C4.13847 5.00076 4.34947 5.07182 4.52279 5.20253C4.6961 5.33325 4.82242 5.51659 4.88281 5.7251L5.03833 6.26984L5.03857 6.2749L6.6792 12.0171C5.91576 12.0992 5.21287 12.4709 4.71527 13.0557C4.21766 13.6405 3.96321 14.3938 4.00433 15.1606C4.04544 15.9273 4.37898 16.6491 4.93626 17.1773C5.49355 17.7055 6.23216 18 7 18H19C19.2652 18 19.5196 17.8946 19.7071 17.7071C19.8946 17.5196 20 17.2652 20 17C20 16.7348 19.8946 16.4804 19.7071 16.2929C19.5196 16.1054 19.2652 16 19 16ZM17.6743 7L16.4531 11.2744C16.3928 11.4831 16.2664 11.6666 16.093 11.7974C15.9196 11.9282 15.7084 11.9993 15.4912 12H8.75439L8.49945 11.1078L7.32642 7H17.6743ZM16.5 19C16.2033 19 15.9133 19.088 15.6666 19.2528C15.42 19.4176 15.2277 19.6519 15.1142 19.926C15.0006 20.2001 14.9709 20.5017 15.0288 20.7926C15.0867 21.0836 15.2296 21.3509 15.4393 21.5607C15.6491 21.7704 15.9164 21.9133 16.2074 21.9712C16.4983 22.0291 16.7999 21.9993 17.074 21.8858C17.3481 21.7723 17.5824 21.58 17.7472 21.3334C17.912 21.0867 18 20.7967 18 20.5C18 20.1022 17.842 19.7206 17.5607 19.4393C17.2794 19.158 16.8978 19 16.5 19Z" fill="var(--icon-color)"/>
</symbol>
<symbol id="twitter" viewBox="0 0 24 24" preserveAspectRatio="xminYMin meet">
<path d="M22 5.80021C21.2483 6.1263 20.4534 6.34187 19.64 6.44021C20.4982 5.92753 21.1413 5.12099 21.45 4.17021C20.6436 4.65027 19.7608 4.98851 18.84 5.17021C18.2245 4.50278 17.405 4.05851 16.5098 3.90706C15.6147 3.75562 14.6945 3.90557 13.8938 4.3334C13.093 4.76123 12.4569 5.44274 12.0852 6.27105C11.7135 7.09935 11.6273 8.0276 11.84 8.91021C10.2094 8.82774 8.61444 8.40316 7.15865 7.66407C5.70287 6.92498 4.41885 5.8879 3.39 4.62021C3.02914 5.25038 2.83952 5.96403 2.84 6.69021C2.83872 7.36459 3.00422 8.02883 3.32176 8.62377C3.63929 9.21872 4.09902 9.72592 4.66 10.1002C4.00798 10.0825 3.36989 9.90751 2.8 9.59021V9.64021C2.80489 10.5851 3.13599 11.4993 3.73731 12.2282C4.33864 12.957 5.17326 13.4559 6.1 13.6402C5.74326 13.7488 5.37288 13.806 5 13.8102C4.74189 13.8072 4.48442 13.7838 4.23 13.7402C4.49391 14.553 5.00462 15.2634 5.69107 15.7724C6.37753 16.2814 7.20558 16.5638 8.06 16.5802C6.6172 17.7155 4.83588 18.3351 3 18.3402C2.66574 18.3413 2.33174 18.3213 2 18.2802C3.87443 19.4905 6.05881 20.1329 8.29 20.1302C9.82969 20.1462 11.3571 19.8552 12.7831 19.2743C14.2091 18.6934 15.505 17.8341 16.5952 16.7467C17.6854 15.6593 18.548 14.3656 19.1326 12.9411C19.7172 11.5166 20.012 9.98994 20 8.45021C20 8.28021 20 8.10021 20 7.92021C20.7847 7.33502 21.4615 6.61763 22 5.80021V5.80021Z" fill="var(--icon-color)"/>
</symbol>
</svg>
